<svg width="21" height="22" viewBox="0 0 21 22" fill="none" xmlns="http://www.w3.org/2000/svg">
<g id="DeviceMobile">
<path id="Vector" d="M14.4375 1.8125H6.5625C6.04036 1.8125 5.5396 2.01992 5.17038 2.38913C4.80117 2.75835 4.59375 3.25911 4.59375 3.78125V18.2188C4.59375 18.7409 4.80117 19.2417 5.17038 19.6109C5.5396 19.9801 6.04036 20.1875 6.5625 20.1875H14.4375C14.9596 20.1875 15.4604 19.9801 15.8296 19.6109C16.1988 19.2417 16.4062 18.7409 16.4062 18.2188V3.78125C16.4062 3.25911 16.1988 2.75835 15.8296 2.38913C15.4604 2.01992 14.9596 1.8125 14.4375 1.8125ZM6.5625 3.125H14.4375C14.6115 3.125 14.7785 3.19414 14.9015 3.31721C15.0246 3.44028 15.0938 3.6072 15.0938 3.78125V4.4375H5.90625V3.78125C5.90625 3.6072 5.97539 3.44028 6.09846 3.31721C6.22153 3.19414 6.38845 3.125 6.5625 3.125ZM14.4375 18.875H6.5625C6.38845 18.875 6.22153 18.8059 6.09846 18.6828C5.97539 18.5597 5.90625 18.3928 5.90625 18.2188V17.5625H15.0938V18.2188C15.0938 18.3928 15.0246 18.5597 14.9015 18.6828C14.7785 18.8059 14.6115 18.875 14.4375 18.875Z" fill="#1D6C96"/>
</g>
</svg>
