<svg width="172" height="51" viewBox="0 0 172 51" fill="none" xmlns="http://www.w3.org/2000/svg">
<path d="M17.1875 42.5513C16.7891 42.5513 16.4547 42.2521 16.4109 41.856L15.3688 32.4794C15.0953 30.0161 13.2789 28.0349 10.8477 27.5481L3.75312 26.1294C3.3875 26.0567 3.125 25.7364 3.125 25.3638C3.125 24.9911 3.3875 24.6708 3.75312 24.5981L10.8484 23.1794C13.2789 22.6927 15.0961 20.7114 15.3695 18.2481L16.4117 8.87158C16.4555 8.47549 16.7891 8.17627 17.1875 8.17627C17.5859 8.17627 17.9203 8.47549 17.9641 8.87158L19.0062 18.2481C19.2797 20.7114 21.0961 22.6927 23.5273 23.1794L30.6227 24.5981C30.9875 24.6708 31.25 24.9911 31.25 25.3638C31.25 25.7364 30.9875 26.0567 30.6219 26.1294L23.5266 27.5481C21.0961 28.0349 19.2789 30.0161 19.0055 32.4794L17.9641 41.856C17.9203 42.2521 17.5859 42.5513 17.1875 42.5513ZM7.88984 25.3638L11.1547 26.0169C14.2555 26.6372 16.5727 29.1653 16.9211 32.3075L17.1867 34.6981L17.4523 32.3075C17.8008 29.1653 20.1187 26.6372 23.2188 26.0169L26.4852 25.3638L23.2203 24.7106C20.1195 24.0903 17.8023 21.5622 17.4539 18.42L17.1875 16.0294L16.9219 18.42C16.5734 21.5622 14.2555 24.0903 11.1555 24.7106L7.88984 25.3638Z" fill="white"/>
<path d="M37.5 26.9263C37.1008 26.9263 36.7664 26.6255 36.7234 26.2286L36.0492 19.9778C35.8844 18.4481 34.7961 17.2192 33.3406 16.9192L28.7492 15.9731C28.3852 15.8981 28.125 15.5786 28.125 15.2075C28.125 14.8364 28.3852 14.5169 28.7484 14.4427L33.3398 13.4966C34.7945 13.1966 35.8836 11.9669 36.0484 10.4372L36.7227 4.18643C36.7664 3.78955 37.1008 3.48877 37.5 3.48877C37.8992 3.48877 38.2336 3.78955 38.2766 4.18643L38.9508 10.4372C39.1156 11.9669 40.2039 13.1958 41.6602 13.4966L46.2508 14.4427C46.6148 14.5169 46.875 14.8364 46.875 15.2075C46.875 15.5786 46.6148 15.8981 46.2516 15.9724L41.6602 16.9185C40.2047 17.2185 39.1164 18.4474 38.9516 19.9771L38.2773 26.2278C38.2336 26.6255 37.8992 26.9263 37.5 26.9263ZM32.7766 15.2075L33.6555 15.3888C35.5789 15.7849 37.0609 17.2802 37.5 19.1989C37.9391 17.2802 39.4211 15.7849 41.3445 15.3888L42.2234 15.2075L41.3445 15.0271C39.4211 14.6302 37.9391 13.1349 37.5 11.2161C37.0609 13.1349 35.5789 14.6302 33.6555 15.0271L32.7766 15.2075Z" fill="white"/>
<path d="M34.375 47.2388C33.9773 47.2388 33.643 46.9403 33.5984 46.545L33.0461 41.6333C32.9195 40.5052 32.0773 39.5974 30.9484 39.3739L27.1914 38.6302C26.8258 38.5575 26.5625 38.2372 26.5625 37.8638C26.5625 37.4903 26.8258 37.17 27.1922 37.0974L30.9492 36.3536C32.0781 36.1302 32.9203 35.2224 33.0469 34.095L33.5992 29.1825C33.643 28.7872 33.9773 28.4888 34.375 28.4888C34.7727 28.4888 35.107 28.7872 35.1516 29.1825L35.7039 34.0942C35.8305 35.2224 36.6727 36.1302 37.8016 36.3536L41.5586 37.0974C41.9242 37.17 42.1875 37.4903 42.1875 37.8638C42.1875 38.2372 41.9242 38.5575 41.5578 38.6302L37.8008 39.3739C36.6719 39.5974 35.8297 40.5044 35.7031 41.6325L35.1508 46.545C35.107 46.9403 34.7727 47.2388 34.375 47.2388ZM31.3602 37.8638C32.7766 38.1817 33.8977 39.1849 34.375 40.4997C34.8523 39.1856 35.9727 38.1825 37.3898 37.8638C35.9727 37.5458 34.8523 36.5427 34.375 35.2278C33.8977 36.5419 32.7773 37.5458 31.3602 37.8638Z" fill="white"/>
<path d="M62.064 32.0716C61.504 32.0716 61.02 31.7876 60.612 31.2196C60.204 30.6516 60 29.7836 60 28.6156C60 27.4876 60.24 26.5796 60.72 25.8916C61.208 25.2036 61.936 24.6076 62.904 24.1036C63.208 23.9436 63.464 23.7996 63.672 23.6716C63.88 23.5436 64.008 23.4236 64.056 23.3116V21.8716C64.056 21.5436 64.016 21.2636 63.936 21.0316C63.864 20.7916 63.68 20.6716 63.384 20.6716C63.112 20.6716 62.928 20.7996 62.832 21.0556C62.736 21.3036 62.688 21.6156 62.688 21.9916V22.6156H60.264V22.0636C60.264 21.3436 60.404 20.7236 60.684 20.2036C60.972 19.6756 61.36 19.2716 61.848 18.9916C62.344 18.7036 62.904 18.5596 63.528 18.5596C64.128 18.5596 64.648 18.6996 65.088 18.9796C65.528 19.2516 65.868 19.6316 66.108 20.1196C66.356 20.5996 66.48 21.1516 66.48 21.7756V29.5996C66.48 30.1836 66.496 30.6396 66.528 30.9676C66.56 31.2876 66.6 31.5916 66.648 31.8796H64.272C64.168 31.7516 64.104 31.5636 64.08 31.3156C64.064 31.0676 64.056 30.9036 64.056 30.8236H63.888C63.688 31.1916 63.432 31.4916 63.12 31.7236C62.816 31.9556 62.464 32.0716 62.064 32.0716ZM63.048 29.6956C63.328 29.6956 63.564 29.5996 63.756 29.4076C63.956 29.2156 64.056 29.0076 64.056 28.7836V25.6636C63.472 25.9116 63.044 26.2876 62.772 26.7916C62.508 27.2876 62.376 27.8476 62.376 28.4716C62.376 28.7436 62.428 29.0156 62.532 29.2876C62.636 29.5596 62.808 29.6956 63.048 29.6956Z" fill="white"/>
<path d="M69.6681 32.0716C69.2681 32.0716 68.9321 31.9436 68.6601 31.6876C68.3881 31.4316 68.1841 31.1076 68.0481 30.7156C67.9121 30.3156 67.8441 29.9116 67.8441 29.5036V18.7516H70.2681V29.0236C70.2681 29.2716 70.3121 29.4516 70.4001 29.5636C70.4961 29.6676 70.6441 29.7196 70.8441 29.7196C71.0201 29.7196 71.1681 29.6596 71.2881 29.5396C71.4161 29.4116 71.5321 29.2636 71.6361 29.0956V18.7516H74.0601V31.8796H71.6361V30.7756C71.3481 31.0476 71.0241 31.3316 70.6641 31.6276C70.3041 31.9236 69.9721 32.0716 69.6681 32.0716Z" fill="white"/>
<path d="M78.6611 32.0716C77.9011 32.0716 77.3211 31.9036 76.9211 31.5676C76.5211 31.2316 76.2451 30.7516 76.0931 30.1276C75.9491 29.5036 75.8771 28.7596 75.8771 27.8956V20.9356H74.6531V18.7516H75.8771V15.5116H78.3011V18.7516H79.9691V20.9356H78.3011V28.2436C78.3011 28.7556 78.3771 29.1356 78.5291 29.3836C78.6811 29.6236 78.9291 29.7436 79.2731 29.7436C79.4251 29.7436 79.5571 29.7316 79.6691 29.7076C79.7891 29.6836 79.8851 29.6556 79.9571 29.6236V31.8436C79.7971 31.9076 79.6211 31.9596 79.4291 31.9996C79.2451 32.0476 78.9891 32.0716 78.6611 32.0716Z" fill="white"/>
<path d="M83.6758 32.0476C82.7078 32.0476 81.9478 31.7236 81.3958 31.0756C80.8438 30.4196 80.5678 29.5916 80.5678 28.5916V22.0156C80.5678 21.0156 80.8438 20.1916 81.3958 19.5436C81.9478 18.8876 82.7078 18.5596 83.6758 18.5596C84.6358 18.5596 85.3918 18.8876 85.9438 19.5436C86.5038 20.1916 86.7838 21.0156 86.7838 22.0156V28.5916C86.7838 29.5916 86.5038 30.4196 85.9438 31.0756C85.3918 31.7236 84.6358 32.0476 83.6758 32.0476ZM83.6758 29.9356C83.9878 29.9356 84.2038 29.8116 84.3238 29.5636C84.4438 29.3076 84.5038 28.9836 84.5038 28.5916V22.0156C84.5038 21.6156 84.4438 21.2916 84.3238 21.0436C84.2038 20.7956 83.9878 20.6716 83.6758 20.6716C83.3638 20.6716 83.1478 20.7956 83.0278 21.0436C82.9078 21.2916 82.8478 21.6156 82.8478 22.0156V28.5916C82.8478 28.9916 82.9078 29.3156 83.0278 29.5636C83.1478 29.8116 83.3638 29.9356 83.6758 29.9356Z" fill="white"/>
<path d="M88.4865 31.8796V20.9356H87.2625V18.7516H88.4865V18.0316C88.4865 16.7916 88.7745 15.8356 89.3505 15.1636C89.9345 14.4836 90.6945 14.1436 91.6305 14.1436C91.8385 14.1436 92.0305 14.1636 92.2065 14.2036C92.3825 14.2436 92.5265 14.2956 92.6385 14.3596V16.4716C92.4785 16.3516 92.2385 16.2916 91.9185 16.2916C91.6865 16.2916 91.4585 16.4116 91.2345 16.6516C91.0185 16.8916 90.9105 17.2476 90.9105 17.7196V18.7516H92.3745V20.9356H90.9105V31.8796H88.4865Z" fill="white"/>
<path d="M96.3675 32.0716C95.3995 32.0716 94.6355 31.7396 94.0755 31.0756C93.5235 30.4036 93.2475 29.5836 93.2475 28.6156V22.0156C93.2475 20.9916 93.5235 20.1596 94.0755 19.5196C94.6275 18.8796 95.3995 18.5596 96.3915 18.5596C97.0395 18.5596 97.5955 18.7076 98.0595 19.0036C98.5315 19.2996 98.8915 19.7036 99.1395 20.2156C99.3875 20.7196 99.5115 21.2956 99.5115 21.9436V25.7596H95.5035V28.6156C95.5035 28.9436 95.5755 29.2476 95.7195 29.5276C95.8715 29.7996 96.0955 29.9356 96.3915 29.9356C96.7035 29.9356 96.9235 29.8076 97.0515 29.5516C97.1875 29.2956 97.2555 28.9836 97.2555 28.6156V27.1756H99.5115V28.6876C99.5115 29.7036 99.2355 30.5236 98.6835 31.1476C98.1395 31.7636 97.3675 32.0716 96.3675 32.0716ZM95.5035 23.8636H97.2555V22.0156C97.2555 21.6556 97.1915 21.3436 97.0635 21.0796C96.9435 20.8076 96.7195 20.6716 96.3915 20.6716C96.0875 20.6716 95.8635 20.8116 95.7195 21.0916C95.5755 21.3636 95.5035 21.6716 95.5035 22.0156V23.8636Z" fill="white"/>
<path d="M100.539 31.8796V18.7516H102.963V19.8556C103.251 19.5756 103.575 19.2916 103.935 19.0036C104.295 18.7076 104.627 18.5596 104.931 18.5596C105.331 18.5596 105.667 18.6876 105.939 18.9436C106.211 19.1996 106.415 19.5236 106.551 19.9156C106.687 20.3076 106.755 20.7116 106.755 21.1276V31.8796H104.331V21.6076C104.331 21.3516 104.287 21.1716 104.199 21.0676C104.111 20.9636 103.963 20.9116 103.755 20.9116C103.579 20.9116 103.427 20.9756 103.299 21.1036C103.179 21.2236 103.067 21.3676 102.963 21.5356V31.8796H100.539Z" fill="white"/>
<path d="M108.414 36.5836C108.31 36.5836 108.186 36.5796 108.042 36.5716C107.898 36.5636 107.758 36.5476 107.622 36.5236V34.3756C107.646 34.3836 107.71 34.3916 107.814 34.3996C107.918 34.4156 107.986 34.4236 108.018 34.4236C108.466 34.4236 108.826 34.3036 109.098 34.0636C109.378 33.8236 109.574 33.5036 109.686 33.1036C109.726 32.9836 109.746 32.8436 109.746 32.6836C109.754 32.5236 109.758 32.3836 109.758 32.2636L107.526 18.7516H109.902L110.862 26.9356L110.91 27.8476H111.006L111.054 26.9356L112.014 18.7516H114.39L112.062 32.8636C111.974 33.5676 111.774 34.1996 111.462 34.7596C111.158 35.3276 110.75 35.7716 110.238 36.0916C109.726 36.4196 109.118 36.5836 108.414 36.5836Z" fill="white"/>
<path d="M118.094 32.0716C117.126 32.0716 116.362 31.7396 115.802 31.0756C115.25 30.4036 114.974 29.5836 114.974 28.6156V22.0156C114.974 20.9916 115.25 20.1596 115.802 19.5196C116.354 18.8796 117.126 18.5596 118.118 18.5596C118.766 18.5596 119.322 18.7076 119.786 19.0036C120.258 19.2996 120.618 19.7036 120.866 20.2156C121.114 20.7196 121.238 21.2956 121.238 21.9436V25.7596H117.23V28.6156C117.23 28.9436 117.302 29.2476 117.446 29.5276C117.598 29.7996 117.822 29.9356 118.118 29.9356C118.43 29.9356 118.65 29.8076 118.778 29.5516C118.914 29.2956 118.982 28.9836 118.982 28.6156V27.1756H121.238V28.6876C121.238 29.7036 120.962 30.5236 120.41 31.1476C119.866 31.7636 119.094 32.0716 118.094 32.0716ZM117.23 23.8636H118.982V22.0156C118.982 21.6556 118.918 21.3436 118.79 21.0796C118.67 20.8076 118.446 20.6716 118.118 20.6716C117.814 20.6716 117.59 20.8116 117.446 21.0916C117.302 21.3636 117.23 21.6716 117.23 22.0156V23.8636Z" fill="white"/>
<path d="M122.313 31.8796V29.9116L125.649 20.9596H122.841V18.7516H128.217V20.7196L124.881 29.6716H128.217V31.8796H122.313Z" fill="white"/>
<path d="M132.414 32.0716C131.446 32.0716 130.682 31.7396 130.122 31.0756C129.57 30.4036 129.294 29.5836 129.294 28.6156V22.0156C129.294 20.9916 129.57 20.1596 130.122 19.5196C130.674 18.8796 131.446 18.5596 132.438 18.5596C133.086 18.5596 133.642 18.7076 134.106 19.0036C134.578 19.2996 134.938 19.7036 135.186 20.2156C135.434 20.7196 135.558 21.2956 135.558 21.9436V25.7596H131.55V28.6156C131.55 28.9436 131.622 29.2476 131.766 29.5276C131.918 29.7996 132.142 29.9356 132.438 29.9356C132.75 29.9356 132.97 29.8076 133.098 29.5516C133.234 29.2956 133.302 28.9836 133.302 28.6156V27.1756H135.558V28.6876C135.558 29.7036 135.282 30.5236 134.73 31.1476C134.186 31.7636 133.414 32.0716 132.414 32.0716ZM131.55 23.8636H133.302V22.0156C133.302 21.6556 133.238 21.3436 133.11 21.0796C132.99 20.8076 132.766 20.6716 132.438 20.6716C132.134 20.6716 131.91 20.8116 131.766 21.0916C131.622 21.3636 131.55 21.6716 131.55 22.0156V23.8636Z" fill="white"/>
<path d="M139.683 32.0716C139.115 32.0716 138.619 31.9756 138.195 31.7836C137.771 31.5916 137.419 31.3196 137.139 30.9676C136.859 30.6076 136.647 30.1836 136.503 29.6956C136.367 29.2076 136.299 28.6636 136.299 28.0636H138.555C138.555 28.5996 138.639 29.0676 138.807 29.4676C138.983 29.8596 139.275 30.0556 139.683 30.0556C140.035 30.0556 140.263 29.9076 140.367 29.6116C140.471 29.3156 140.523 28.9756 140.523 28.5916C140.523 28.1436 140.347 27.6876 139.995 27.2236C139.651 26.7516 139.291 26.3316 138.915 25.9636C138.267 25.3236 137.727 24.6916 137.295 24.0676C136.871 23.4436 136.659 22.7116 136.659 21.8716C136.659 20.8796 136.919 20.0796 137.439 19.4716C137.959 18.8636 138.699 18.5596 139.659 18.5596C140.235 18.5596 140.719 18.6356 141.111 18.7876C141.511 18.9396 141.831 19.1676 142.071 19.4716C142.311 19.7756 142.483 20.1476 142.587 20.5876C142.699 21.0276 142.755 21.5356 142.755 22.1116H140.499C140.499 21.6956 140.455 21.3356 140.367 21.0316C140.279 20.7276 140.059 20.5756 139.707 20.5756C139.419 20.5756 139.215 20.6996 139.095 20.9476C138.975 21.1876 138.915 21.4956 138.915 21.8716C138.915 22.3116 139.019 22.7036 139.227 23.0476C139.443 23.3836 139.799 23.7956 140.295 24.2836C140.919 24.8916 141.487 25.5396 141.999 26.2276C142.519 26.9156 142.779 27.6636 142.779 28.4716C142.779 28.9996 142.707 29.4836 142.563 29.9236C142.427 30.3636 142.223 30.7436 141.951 31.0636C141.687 31.3836 141.363 31.6316 140.979 31.8076C140.603 31.9836 140.171 32.0716 139.683 32.0716Z" fill="white"/>
<path d="M143.759 31.8796V29.2156H146.279V31.8796H143.759Z" fill="white"/>
<path d="M150.484 32.0596C149.42 32.0596 148.636 31.7276 148.132 31.0636C147.636 30.3996 147.388 29.4756 147.388 28.2916V22.3276C147.388 21.1356 147.636 20.2116 148.132 19.5556C148.636 18.8916 149.42 18.5596 150.484 18.5596C151.548 18.5596 152.332 18.8916 152.836 19.5556C153.348 20.2196 153.604 21.1436 153.604 22.3276V23.3596H151.18V22.0156C151.18 21.6476 151.132 21.3396 151.036 21.0916C150.94 20.8436 150.756 20.7196 150.484 20.7196C150.212 20.7196 150.032 20.8476 149.944 21.1036C149.856 21.3516 149.812 21.6556 149.812 22.0156V28.6036C149.812 28.9636 149.856 29.2716 149.944 29.5276C150.032 29.7756 150.212 29.8996 150.484 29.8996C150.756 29.8996 150.94 29.7756 151.036 29.5276C151.132 29.2796 151.18 28.9716 151.18 28.6036V27.2596H153.604V28.2916C153.604 29.4756 153.348 30.3996 152.836 31.0636C152.332 31.7276 151.548 32.0596 150.484 32.0596Z" fill="white"/>
<path d="M157.668 32.0476C156.7 32.0476 155.94 31.7236 155.388 31.0756C154.836 30.4196 154.56 29.5916 154.56 28.5916V22.0156C154.56 21.0156 154.836 20.1916 155.388 19.5436C155.94 18.8876 156.7 18.5596 157.668 18.5596C158.628 18.5596 159.384 18.8876 159.936 19.5436C160.496 20.1916 160.776 21.0156 160.776 22.0156V28.5916C160.776 29.5916 160.496 30.4196 159.936 31.0756C159.384 31.7236 158.628 32.0476 157.668 32.0476ZM157.668 29.9356C157.98 29.9356 158.196 29.8116 158.316 29.5636C158.436 29.3076 158.496 28.9836 158.496 28.5916V22.0156C158.496 21.6156 158.436 21.2916 158.316 21.0436C158.196 20.7956 157.98 20.6716 157.668 20.6716C157.356 20.6716 157.14 20.7956 157.02 21.0436C156.9 21.2916 156.84 21.6156 156.84 22.0156V28.5916C156.84 28.9916 156.9 29.3156 157.02 29.5636C157.14 29.8116 157.356 29.9356 157.668 29.9356Z" fill="white"/>
<path d="M161.852 31.8796V18.7516H164.276V19.8556C164.668 19.4956 165.024 19.1916 165.344 18.9436C165.672 18.6876 165.988 18.5596 166.292 18.5596C166.724 18.5596 167.072 18.7076 167.336 19.0036C167.6 19.2996 167.796 19.6396 167.924 20.0236C168.268 19.6716 168.624 19.3396 168.992 19.0276C169.368 18.7156 169.748 18.5596 170.132 18.5596C170.532 18.5596 170.868 18.6876 171.14 18.9436C171.412 19.1996 171.616 19.5236 171.752 19.9156C171.888 20.3076 171.956 20.7116 171.956 21.1276V31.8796H169.676V21.6076C169.676 21.3516 169.612 21.1716 169.484 21.0676C169.364 20.9636 169.212 20.9116 169.028 20.9116C168.844 20.9116 168.668 20.9836 168.5 21.1276C168.332 21.2636 168.204 21.3996 168.116 21.5356V31.8796H165.836V21.6076C165.836 21.3516 165.772 21.1716 165.644 21.0676C165.524 20.9636 165.372 20.9116 165.188 20.9116C165.004 20.9116 164.828 20.9836 164.66 21.1276C164.492 21.2636 164.364 21.3996 164.276 21.5356V31.8796H161.852Z" fill="white"/>
</svg>
